<?xml version="1.0" encoding="UTF-8"?>
<!-- Generator: Adobe Illustrator 21.1.0, SVG Export Plug-In . SVG Version: 6.00 Build 0)  -->
<svg xmlns="http://www.w3.org/2000/svg" xmlns:xlink="http://www.w3.org/1999/xlink" id="Layer_1" x="0px" y="0px" viewBox="0 0 514.4 542.3" style="enable-background:new 0 0 514.4 542.3;" xml:space="preserve">
<style type="text/css">
	.st0{fill:#1D1D1C;}
	.st1{fill:none;stroke:#1D1D1C;stroke-width:4.3814;}
	.st2{fill:none;}
</style>
<g>
	<path class="st0" d="M224.1,480.2v33.4h-5.9v-33.4h-8.9v-5.5H233v5.5L224.1,480.2L224.1,480.2z"></path>
	<path class="st0" d="M259.9,502.6h-17.6c0.2,2,0.8,3.6,2,4.8c1.2,1.2,2.6,1.8,4.5,1.8c1.4,0,2.6-0.3,3.5-1s1.9-1.9,3.1-3.7l4.8,2.7   c-0.7,1.3-1.5,2.3-2.3,3.2c-0.8,0.9-1.7,1.6-2.6,2.2c-0.9,0.6-2,1-3,1.3s-2.3,0.4-3.6,0.4c-3.7,0-6.6-1.2-8.8-3.5   c-2.2-2.4-3.3-5.5-3.3-9.4s1.1-7,3.2-9.4c2.2-2.4,5-3.5,8.6-3.5s6.5,1.2,8.6,3.4c2.1,2.3,3.1,5.4,3.1,9.5L259.9,502.6z M254.1,498   c-0.8-3-2.7-4.5-5.7-4.5c-0.7,0-1.3,0.1-1.9,0.3c-0.6,0.2-1.2,0.5-1.7,0.9s-0.9,0.9-1.3,1.4c-0.4,0.6-0.6,1.2-0.8,1.9L254.1,498   L254.1,498z"></path>
	<path class="st0" d="M287.8,490.1v7.5c-1.3-1.6-2.5-2.7-3.5-3.2c-1-0.6-2.2-0.9-3.6-0.9c-2.1,0-3.9,0.7-5.3,2.2s-2.1,3.4-2.1,5.6   c0,2.3,0.7,4.2,2,5.7c1.4,1.5,3.1,2.2,5.3,2.2c1.4,0,2.6-0.3,3.6-0.9s2.2-1.7,3.6-3.3v7.5c-2.3,1.2-4.6,1.8-6.9,1.8   c-3.8,0-7-1.2-9.5-3.7c-2.6-2.5-3.8-5.5-3.8-9.2s1.3-6.7,3.9-9.3s5.8-3.8,9.5-3.8C283.3,488.3,285.6,488.9,287.8,490.1z"></path>
	<path class="st0" d="M297.1,471h5.7v20c2-1.8,4.2-2.7,6.7-2.7c2.8,0,5,0.9,6.7,2.7c1.4,1.6,2.1,4.1,2.1,7.5v15h-5.7V499   c0-2-0.3-3.4-1-4.3s-1.8-1.3-3.4-1.3c-2,0-3.4,0.6-4.2,1.8c-0.8,1.2-1.2,3.4-1.2,6.4v11.9h-5.7V471z"></path>
	<path class="st0" d="M328,489h5.7v2.3c2-2,4.2-2.9,6.7-2.9c2.9,0,5.1,0.9,6.7,2.7c1.4,1.5,2.1,4,2.1,7.5v15h-5.8v-13.7   c0-2.4-0.3-4.1-1-5s-1.8-1.4-3.6-1.4c-1.9,0-3.2,0.6-4,1.9c-0.8,1.2-1.2,3.4-1.2,6.4v11.8h-5.7V489H328z"></path>
	<path class="st0" d="M357.6,501.1c0-3.5,1.3-6.6,3.8-9c2.5-2.5,5.6-3.7,9.3-3.7c3.7,0,6.8,1.3,9.3,3.8s3.8,5.6,3.8,9.2   c0,3.7-1.3,6.8-3.8,9.2c-2.6,2.5-5.7,3.7-9.4,3.7c-3.7,0-6.8-1.3-9.2-3.8C358.9,508,357.6,504.8,357.6,501.1z M363.4,501.2   c0,2.5,0.7,4.4,2,5.8s3.1,2.2,5.3,2.2c2.2,0,4-0.7,5.3-2.1s2-3.3,2-5.7c0-2.4-0.7-4.3-2-5.7c-1.3-1.4-3.1-2.2-5.3-2.2   c-2.2,0-3.9,0.7-5.3,2.2C364.1,497,363.4,498.9,363.4,501.2z"></path>
	<path class="st0" d="M398,471v42.5h-5.7V471H398z"></path>
	<path class="st0" d="M406.6,501.1c0-3.5,1.3-6.6,3.8-9c2.5-2.5,5.6-3.7,9.3-3.7c3.7,0,6.8,1.3,9.3,3.8s3.8,5.6,3.8,9.2   c0,3.7-1.3,6.8-3.8,9.2c-2.6,2.5-5.7,3.7-9.4,3.7c-3.7,0-6.8-1.3-9.2-3.8C407.8,508,406.6,504.8,406.6,501.1z M412.4,501.2   c0,2.5,0.7,4.4,2,5.8s3.1,2.2,5.3,2.2c2.2,0,4-0.7,5.3-2.1s2-3.3,2-5.7c0-2.4-0.7-4.3-2-5.7c-1.3-1.4-3.1-2.2-5.3-2.2   c-2.2,0-3.9,0.7-5.3,2.2C413,497,412.4,498.9,412.4,501.2z"></path>
	<path class="st0" d="M465,512.9c0,1.2,0,2.2-0.1,3.1c-0.1,0.9-0.2,1.7-0.3,2.3c-0.4,1.8-1.2,3.4-2.4,4.8c-2.2,2.6-5.3,3.8-9.1,3.8   c-3.3,0-6-0.9-8.1-2.6c-2.2-1.8-3.4-4.3-3.8-7.5h5.7c0.2,1.2,0.6,2.1,1.1,2.8c1.2,1.5,2.9,2.3,5.1,2.3c4.1,0,6.2-2.5,6.2-7.6v-3.4   c-2.3,2.3-4.8,3.4-7.8,3.4c-3.3,0-6.1-1.2-8.2-3.6c-2.2-2.5-3.2-5.5-3.2-9.2c0-3.6,1-6.6,3-9.1c2.2-2.7,5-4,8.5-4   c3.1,0,5.7,1.2,7.7,3.4V489h5.7L465,512.9L465,512.9z M459.6,501.3c0-2.4-0.6-4.3-1.9-5.7c-1.3-1.5-2.9-2.2-5-2.2   c-2.2,0-3.8,0.8-5.1,2.4c-1.1,1.4-1.7,3.3-1.7,5.5s0.6,4.1,1.7,5.5c1.2,1.6,2.9,2.3,5.1,2.3s3.9-0.8,5.1-2.4   C459,505.4,459.6,503.5,459.6,501.3z"></path>
	<path class="st0" d="M482.5,509l-11-20h6.6l7.5,14.1l7-14.1h6.4l-19.6,37.9h-6.5L482.5,509z"></path>
</g>
<g>
	<path class="st0" d="M42.6,47.3H26l-4.3,9.4h-6.3l19.3-41.3l18.6,41.3h-6.4L42.6,47.3z M40.2,41.8l-5.8-13.2l-6,13.2H40.2z"></path>
	<path class="st0" d="M59.4,32.2h5.7v2.2c1-1.1,2-1.8,2.8-2.2c0.8-0.4,1.8-0.6,2.9-0.6c1.5,0,3.1,0.5,4.7,1.5l-2.6,5.2   c-1.1-0.8-2.1-1.2-3.1-1.2c-3.1,0-4.6,2.3-4.6,7v12.7h-5.8V32.2z"></path>
	<path class="st0" d="M89,37.5v19.2h-5.6V37.5H81v-5.3h2.4v-9h5.7v9h4.4v5.3H89z"></path>
</g>
<path class="st1" d="M221,469.6c0,0-0.6-238.5-0.6-378.3c0-51.2-34.1-56.6-48-56.6H98.9"></path>
<g>
	<rect x="19.3" class="st2" width="15.4" height="15.4"></rect>
	<rect y="52.2" class="st2" width="15.4" height="15.4"></rect>
	<rect x="443.9" y="526.9" class="st2" width="15.4" height="15.4"></rect>
	<rect x="499" y="481.3" class="st2" width="15.4" height="15.4"></rect>
</g>
</svg>
